<svg height="100" viewBox="0 0 100 100" width="100" xmlns="http://www.w3.org/2000/svg" xmlns:xlink="http://www.w3.org/1999/xlink"><linearGradient id="a" x1="0%" x2="100%" y1="50%" y2="50%"><stop offset="0"/><stop offset=".51" stop-color="#ddd"/><stop offset=".88"/></linearGradient><linearGradient id="b"><stop offset=".003" stop-color="#b5b5b5" stop-opacity="0"/><stop offset=".124" stop-color="#969" stop-opacity=".163"/><stop offset=".555" stop-color="#2b2b2b" stop-opacity=".742"/><stop offset=".747"/></linearGradient><linearGradient id="c" x1="-3.1%" x2="75.3%" xlink:href="#b" y1="9.1%" y2="76.5%"/><linearGradient id="d" x1="103.1%" x2="24.7%" xlink:href="#b" y1="9.1%" y2="76.6%"/><g fill="none"><path d="m0 0h100v100h-100z" fill="#000"/><g fill="#fff" transform="translate(11 40.8)"><g transform="translate(0 .2)"><path d="m0 16.8v-16.8h2.6l10.5 12.9h-1.3v-12.9h3.1v16.8h-2.5l-10.6-12.9h1.3v12.9z"/><path d="m19.4 16.8v-16.8h12.3v2.6h-9.1v11.6h9.5v2.6zm2.9-7.2v-2.6h8.4v2.6z"/></g><path d="m71.2 17.3c-1.3 0-2.6-.2-3.8-.6s-2.1-.9-2.8-1.5l1.1-2.4c.7.5 1.5 1 2.5 1.3 1 .4 2 .5 3.1.5.9 0 1.6-.1 2.1-.3s.9-.4 1.2-.8c.2-.3.4-.7.4-1.1 0-.5-.2-.9-.6-1.2s-.8-.6-1.4-.7c-.6-.2-1.2-.4-2-.5-.7-.2-1.4-.4-2.1-.6s-1.4-.5-1.9-.8c-.6-.3-1.1-.8-1.4-1.4-.5-.6-.6-1.3-.6-2.2s.2-1.7.7-2.5 1.2-1.4 2.2-1.8c1-.5 2.3-.7 3.8-.7 1 0 2 .1 3 .4s1.9.6 2.6 1.1l-1 2.4c-.7-.4-1.5-.8-2.3-1s-1.6-.3-2.3-.3c-.9 0-1.6.1-2.1.3s-.9.5-1.2.8c-.2.3-.4.7-.4 1.1 0 .5.2.9.5 1.2.4.3.8.6 1.4.7.6.2 1.3.4 2 .5l2.1.6c.7.2 1.4.5 2 .8s1.1.8 1.4 1.4c.4.6.5 1.3.5 2.2s-.2 1.7-.7 2.5-1.2 1.4-2.2 1.8c-1 .5-2.3.7-3.8.7z"/></g><g transform="translate(45.2 36.2)"><circle cx="14.3" cy="14.3" fill="#fff" r="14.3"/><path d="m14.3 2.8c-6.4 0-11.5 5.1-11.5 11.5s5.1 11.5 11.5 11.5 11.5-5.1 11.5-11.5-5.2-11.5-11.5-11.5zm0 16c-2.5 0-4.5-2-4.5-4.5s2-4.5 4.5-4.5 4.5 2 4.5 4.5-2 4.5-4.5 4.5z" fill="#000"/><circle cx="14.3" cy="14.3" fill="#000" r="1"/><path d="m8.8 14c.1-2.9 2.5-5.3 5.5-5.3s5.4 2.3 5.5 5.3h5.1c-.2-5.7-4.9-10.4-10.6-10.4-5.8 0-10.5 4.7-10.6 10.4z" fill="url(#a)"/><path d="m14.3 3.6v5.1c3 0 5.4 2.4 5.5 5.4h5.1c-.1-5.8-4.8-10.4-10.6-10.5z" fill="url(#c)"/><path d="m14.3 3.6v5.1c-3 0-5.4 2.4-5.5 5.4h-5.1c.1-5.8 4.8-10.4 10.6-10.5z" fill="url(#d)"/></g></g></svg>