<svg xmlns="http://www.w3.org/2000/svg" width="250" height="250" fill="none"><path fill="#E2007A" d="M0 0h250v250H0z"/><path fill="#fff" d="M114.975 163.006c-9.801 0-13.308 6.413-13.308 18.997 0 11.979 3.267 18.877 12.584 18.877 9.195 0 13.672-7.139 13.672-19.844 0-11.496-4.599-18.03-12.948-18.03Zm-29.886 68.605v-65.943c0-5.082 0-10.041-.12-15.123h16.818c.242 1.692.605 5.564.605 7.864 2.662-4.597 8.229-9.317 18.149-9.317 14.158 0 24.927 11.856 24.927 31.219 0 22.142-12.1 34.363-27.226 34.363-8.832 0-13.431-3.388-15.85-7.02v23.957H85.089Zm-23.622-81.066h17.425v62.676H61.467v-62.676Zm0-10.166v-15.488h17.425v15.488H61.467Zm-34.27 72.842V163.61H18v-13.065h9.197v-5.447c0-12.946 6.414-21.417 19.965-21.417 2.782 0 6.413.242 7.985.727v13.673a30.088 30.088 0 0 0-3.629-.242c-5.082 0-7.02 1.815-7.02 8.591v4.115H55.39v13.065H44.5v49.611H27.196Z"/><path fill="#F8A6D7" d="M202.898 82.5c-15.643 0-28.324-12.033-28.324-26.874 0-1.821.192-3.6.557-5.32h15.999a11.79 11.79 0 0 0-1.266 5.32c0 6.83 5.836 12.366 13.034 12.366 1.604 0 3.14-.276 4.56-.779v14.938a30.009 30.009 0 0 1-4.56.349Zm27.66-21.071h-16.149a11.812 11.812 0 0 0 1.523-5.803c0-6.83-5.836-12.366-13.034-12.366-1.347 0-2.646.194-3.869.554V18.39h14.024v12.144c10.626 3.874 18.169 13.646 18.169 25.092a25.68 25.68 0 0 1-.664 5.803Z"/></svg>