<svg xmlns="http://www.w3.org/2000/svg" width="250" height="250" fill="none"><path fill="#E20134" d="M0 0h250v250H0z"/><path fill="#fff" d="M171.271 151.514c0 2.444-.396 4.746-3.667 4.746-1.869 0-2.696-1.152-2.696-2.481 0-1.798 1.15-2.769 4.278-2.769h2.085v.504Zm5.034 3.163v-7.801c0-4.458-2.732-6.4-7.694-6.435-5.109 0-7.28 2.152-7.848 4.991l4.756.976c.216-1.366.719-2.264 2.876-2.264 2.409 0 2.876 1.294 2.876 2.624v1.115h-2.66c-5.465 0-8.845 1.977-8.845 6.219 0 2.877 1.87 5.824 6.365 5.824 3.307 0 4.565-1.222 5.248-2.265 0 .468.108 1.474.252 1.834h4.925c-.108-.431-.251-3.02-.251-4.818Zm49.74-6.543c-.037-2.157-.899-3.99-3.415-3.99-2.445 0-3.452 1.689-3.668 3.99h7.083Zm-7.191 3.164c0 2.337 1.187 4.602 3.739 4.602 2.157 0 2.769-.863 3.272-1.978h5.142c-.648 2.265-2.697 6.004-8.522 6.004-6.147 0-8.808-4.565-8.808-9.455 0-5.86 2.984-10.03 8.988-10.03 6.364 0 8.557 4.638 8.557 9.276 0 .646 0 1.042-.072 1.581h-12.296Zm-5.602 2.193c-.611 3.092-2.804 6.435-8.34 6.435-5.789 0-8.773-3.991-8.773-9.599 0-5.501 3.343-9.886 9.024-9.886 6.255 0 8.017 4.53 8.089 6.615h-4.997c-.323-1.511-1.187-2.553-3.2-2.553-2.373 0-3.703 2.049-3.703 5.645 0 3.99 1.438 5.787 3.667 5.787 1.798 0 2.732-1.042 3.199-2.444h5.034Zm-34.874-7.91c0-1.582 0-3.307-.035-4.709h4.997c.108.503.18 1.797.215 2.373.612-1.151 2.122-2.804 5.393-2.804 3.74 0 6.149 2.551 6.149 7.226v11.828h-5.142v-11.253c0-2.121-.682-3.631-2.983-3.631-2.194 0-3.417 1.222-3.417 4.53v10.354h-5.177v-13.914Zm-29.084.36c0-1.869 0-3.488-.037-5.069h5.07c.072.431.144 2.265.144 3.272.827-2.122 2.804-3.668 5.967-3.703v4.924c-3.738-.107-5.967.9-5.967 6.004v8.126h-5.177v-13.554Zm-8.572 13.554v-14.741h-1.513v-3.882h1.513v-1.618c0-3.847 1.906-6.364 5.933-6.364.827 0 1.905.073 2.373.216v4.062a9.215 9.215 0 0 0-1.079-.072c-1.51 0-2.085.54-2.085 2.553v1.223h2.626v3.882h-2.626v14.741h-5.142Zm54.982 27.157c0-5.96 0-11.114-.114-16.156h16.154c.229 1.376.458 7.217.458 10.428 2.635-6.761 8.937-11.688 19.02-11.803v15.698c-11.917-.345-19.02 2.862-19.02 19.134v25.894h-16.498v-43.195Zm-21.628 6.989c-.114-6.876-2.865-12.717-10.885-12.717-7.792 0-11 5.384-11.686 12.717h22.571Zm-22.915 10.081c0 7.449 3.781 14.666 11.915 14.666 6.875 0 8.823-2.749 10.428-6.301h16.383c-2.062 7.219-8.593 19.135-27.154 19.135-19.592 0-28.07-14.551-28.07-30.134 0-18.677 9.509-31.967 28.643-31.967 20.28 0 27.269 14.781 27.269 29.562 0 2.06 0 3.323-.228 5.039h-39.186Zm-53.27-33.226h9.167v-16.041h16.384v16.041h11.687v12.375h-11.687v29.331c0 4.469 1.375 6.186 6.301 6.186.917 0 2.521 0 3.667-.113v11.227c-3.208 1.147-7.677 1.147-11 1.147-11.572 0-15.352-6.188-15.352-16.615v-31.163h-9.167v-12.375Zm-55.176 15.009c0-5.041 0-10.539-.114-15.009h15.926c.343 1.604.574 5.729.688 7.562 1.948-3.667 6.76-8.937 17.186-8.937 11.917 0 19.593 8.136 19.593 23.03v37.696H79.609v-35.862c0-6.76-2.177-11.574-9.51-11.574-6.988 0-10.884 3.897-10.884 14.438v32.998h-16.5v-44.342ZM18 170.496h16.5v59.351H18v-59.351Zm0-9.623v-14.666h16.5v14.666H18Z"/><path fill="#F8A7C4" d="M202.898 82.11c-15.644 0-28.325-12.032-28.325-26.874 0-1.821.193-3.6.557-5.32h15.999a11.786 11.786 0 0 0-1.265 5.32c0 6.83 5.835 12.366 13.034 12.366 1.603 0 3.14-.275 4.559-.779v14.938a29.986 29.986 0 0 1-4.559.349Zm27.659-21.07h-16.148a11.813 11.813 0 0 0 1.523-5.804c0-6.83-5.836-12.366-13.034-12.366-1.347 0-2.646.194-3.869.554V18h14.024v12.144c10.625 3.873 18.169 13.646 18.169 25.092 0 1.993-.231 3.934-.665 5.803Z"/></svg>