<svg xmlns="http://www.w3.org/2000/svg" width="250" height="250" fill="none"><path fill="#762B84" d="M0 0h250v250H0z"/><path fill="#fff" d="M171.271 175.03c0 2.445-.396 4.745-3.667 4.745-1.869 0-2.696-1.15-2.696-2.48 0-1.798 1.15-2.769 4.278-2.769h2.085v.504Zm5.034 3.164v-7.802c0-4.457-2.732-6.399-7.694-6.436-5.109 0-7.28 2.153-7.848 4.992l4.756.977c.216-1.366.719-2.265 2.876-2.265 2.409 0 2.876 1.294 2.876 2.624v1.114h-2.66c-5.465 0-8.844 1.978-8.844 6.22 0 2.877 1.869 5.825 6.364 5.825 3.307 0 4.565-1.222 5.248-2.265 0 .467.108 1.474.252 1.833h4.925c-.108-.431-.251-3.02-.251-4.817Zm49.74-6.543c-.036-2.158-.899-3.991-3.415-3.991-2.445 0-3.452 1.69-3.668 3.991h7.083Zm-7.191 3.163c0 2.337 1.187 4.602 3.739 4.602 2.157 0 2.769-.863 3.272-1.977h5.142c-.648 2.264-2.697 6.004-8.522 6.004-6.147 0-8.808-4.567-8.808-9.456 0-5.86 2.984-10.031 8.988-10.031 6.364 0 8.557 4.638 8.557 9.276 0 .647 0 1.043-.072 1.582h-12.296Zm-5.602 2.193c-.611 3.092-2.804 6.436-8.34 6.436-5.789 0-8.773-3.991-8.773-9.599 0-5.501 3.343-9.888 9.024-9.888 6.255 0 8.017 4.531 8.089 6.616h-4.997c-.323-1.511-1.187-2.552-3.2-2.552-2.373 0-3.703 2.048-3.703 5.644 0 3.991 1.438 5.788 3.667 5.788 1.798 0 2.733-1.043 3.199-2.445h5.034Zm-34.874-7.909c0-1.582 0-3.308-.035-4.709h4.997c.108.502.18 1.797.215 2.371.612-1.15 2.122-2.804 5.393-2.804 3.74 0 6.149 2.553 6.149 7.227v11.828h-5.142v-11.252c0-2.122-.682-3.632-2.983-3.632-2.194 0-3.417 1.223-3.417 4.53v10.354h-5.177v-13.913Zm-29.084.359c0-1.87 0-3.487-.037-5.068h5.07c.072.431.144 2.264.144 3.271.827-2.121 2.804-3.667 5.967-3.704v4.926c-3.738-.108-5.967.898-5.967 6.004v8.125h-5.177v-13.554Zm-8.572 13.554v-14.74h-1.513v-3.882h1.513v-1.619c0-3.846 1.906-6.364 5.933-6.364.827 0 1.905.072 2.373.216v4.063a9.002 9.002 0 0 0-1.079-.072c-1.509 0-2.085.539-2.085 2.553v1.223h2.626v3.882h-2.626v14.74h-5.142Zm80.146 25.016c-.07-4.316-1.797-7.984-6.831-7.984-4.888 0-6.901 3.382-7.333 7.984h14.164Zm-14.38 6.326c0 4.675 2.373 9.204 7.479 9.204 4.314 0 5.536-1.725 6.542-3.955h10.283c-1.295 4.53-5.393 12.008-17.041 12.008-12.295 0-17.616-9.132-17.616-18.911 0-11.719 5.967-20.061 17.975-20.061 12.727 0 17.112 9.276 17.112 18.552 0 1.294 0 2.084-.143 3.163h-24.591Zm-32.912-10.714c0-3.738 0-6.975-.072-10.138h10.138c.144.864.287 4.531.287 6.542 1.654-4.24 5.609-7.332 11.937-7.405v9.85c-7.478-.215-11.937 1.799-11.937 12.008v16.251h-10.353v-27.108Zm-5.636 16.322c0 3.523 0 7.479.071 10.786h-10.066c-.144-1.007-.215-3.02-.288-4.314-2.229 3.739-5.464 5.177-10.282 5.177-7.55 0-12.368-4.602-12.368-13.805v-24.304h10.283v22.218c0 4.099 1.295 7.479 5.752 7.479 4.674 0 6.615-2.519 6.615-9.852v-19.845h10.283v26.46Zm-58.748-26.46h5.752v-10.066h10.283v10.066h7.333v7.765h-7.333v18.408c0 2.804.862 3.883 3.953 3.883.576 0 1.582 0 2.302-.073v7.047c-2.014.718-4.818.718-6.903.718-7.261 0-9.635-3.881-9.635-10.424v-19.559h-5.752v-7.765Zm-3.375-12.294v49.54H95.104v-49.54h10.713Zm-17.772 38.754c0 3.523 0 7.479.072 10.786H78.051c-.144-1.007-.217-3.02-.288-4.314-2.23 3.739-5.464 5.177-10.282 5.177-7.55 0-12.367-4.602-12.367-13.805v-24.304h10.282v22.218c0 4.099 1.295 7.479 5.751 7.479 4.674 0 6.616-2.519 6.616-9.852v-19.845h10.282v26.46Zm-35.82-1.222c-1.222 6.184-5.608 12.871-16.68 12.871-11.578 0-17.545-7.981-17.545-19.198 0-11.001 6.688-19.774 18.048-19.774 12.511 0 16.033 9.06 16.178 13.23h-9.994c-.648-3.021-2.373-5.105-6.4-5.105-4.746 0-7.406 4.098-7.406 11.288 0 7.984 2.876 11.578 7.335 11.578 3.594 0 5.464-2.086 6.398-4.89h10.067Z"/><path fill="#D6BADC" d="M202.898 82.5c-15.644 0-28.325-12.033-28.325-26.874 0-1.822.193-3.6.557-5.32h15.999a11.786 11.786 0 0 0-1.265 5.32c0 6.83 5.835 12.366 13.034 12.366 1.603 0 3.14-.276 4.559-.78v14.939a29.986 29.986 0 0 1-4.559.348Zm27.659-21.071h-16.148a11.813 11.813 0 0 0 1.523-5.803c0-6.83-5.836-12.366-13.034-12.366-1.347 0-2.646.193-3.869.553V18.39h14.024v12.145c10.625 3.873 18.169 13.646 18.169 25.092 0 1.993-.231 3.933-.665 5.803Z"/></svg>