<svg xmlns="http://www.w3.org/2000/svg" width="250" height="250" fill="none"><path fill="#A90042" d="M0 0h250v250H0z"/><path fill="#fff" d="M171.269 181.491c0 2.445-.396 4.746-3.667 4.746-1.869 0-2.696-1.151-2.696-2.481 0-1.797 1.15-2.769 4.278-2.769h2.085v.504Zm5.034 3.164v-7.802c0-4.458-2.733-6.399-7.694-6.435-5.109 0-7.28 2.153-7.848 4.991l4.756.977c.216-1.366.719-2.265 2.876-2.265 2.409 0 2.876 1.295 2.876 2.624v1.115h-2.66c-5.465 0-8.845 1.977-8.845 6.219 0 2.877 1.87 5.825 6.364 5.825 3.308 0 4.566-1.222 5.249-2.265 0 .467.108 1.474.252 1.833h4.925c-.108-.431-.251-3.02-.251-4.817Zm49.74-6.543c-.037-2.157-.899-3.991-3.415-3.991-2.446 0-3.453 1.689-3.668 3.991h7.083Zm-7.191 3.163c0 2.338 1.187 4.603 3.74 4.603 2.156 0 2.768-.864 3.271-1.978h5.142c-.648 2.264-2.697 6.004-8.522 6.004-6.147 0-8.808-4.566-8.808-9.456 0-5.859 2.984-10.03 8.988-10.03 6.364 0 8.557 4.638 8.557 9.276 0 .646 0 1.042-.072 1.581h-12.296Zm-5.602 2.194c-.611 3.091-2.804 6.435-8.34 6.435-5.789 0-8.773-3.991-8.773-9.599 0-5.502 3.343-9.887 9.024-9.887 6.255 0 8.017 4.53 8.089 6.615h-4.997c-.324-1.51-1.187-2.553-3.2-2.553-2.373 0-3.703 2.049-3.703 5.645 0 3.991 1.438 5.788 3.666 5.788 1.799 0 2.733-1.042 3.2-2.444h5.034Zm-34.874-7.91c0-1.583 0-3.308-.035-4.709h4.997c.107.502.18 1.797.215 2.372.612-1.151 2.122-2.804 5.393-2.804 3.74 0 6.148 2.552 6.148 7.226v11.828h-5.141V178.22c0-2.122-.682-3.631-2.983-3.631-2.194 0-3.417 1.221-3.417 4.529v10.354h-5.177v-13.913Zm-29.084.359c0-1.869 0-3.487-.037-5.068h5.069c.073.431.145 2.264.145 3.271.827-2.121 2.804-3.667 5.968-3.703v4.925c-3.74-.107-5.968.9-5.968 6.004v8.125h-5.177v-13.554Zm-8.572 13.554v-14.74h-1.513v-3.882h1.513v-1.618c0-3.847 1.906-6.365 5.933-6.365.827 0 1.905.073 2.373.216v4.064a8.795 8.795 0 0 0-1.079-.073c-1.51 0-2.085.539-2.085 2.553v1.223h2.626v3.882h-2.626v14.74h-5.142Zm81.993 22.268c-.057-3.545-1.475-6.556-5.611-6.556-4.017 0-5.671 2.775-6.025 6.556h11.636Zm-11.814 5.198c0 3.841 1.949 7.562 6.143 7.562 3.547 0 4.549-1.419 5.377-3.249h8.447c-1.064 3.721-4.429 9.865-14.001 9.865-10.101 0-14.473-7.502-14.473-15.535 0-9.631 4.904-16.482 14.77-16.482 10.456 0 14.058 7.619 14.058 15.24 0 1.063 0 1.714-.117 2.599h-20.204Zm-11.643 4.607c0 2.895 0 6.143.06 8.863h-8.27c-.12-.829-.177-2.481-.237-3.546-1.831 3.072-4.489 4.254-8.447 4.254-6.203 0-10.163-3.781-10.163-11.342v-19.969h8.45v18.255c0 3.368 1.062 6.144 4.726 6.144 3.838 0 5.434-2.068 5.434-8.092v-16.307h8.447v21.74Zm-46.108 2.778c5.199 0 6.382-3.723 6.382-9.275 0-5.908-1.183-9.156-6.203-9.156-4.549 0-6.616 3.781-6.616 9.275 0 5.433 2.007 9.156 6.437 9.156Zm6.263 2.835c-1.714 2.776-4.43 3.958-8.506 3.958-6.793 0-12.88-5.08-12.88-15.714 0-9.866 5.91-16.303 13.589-16.303 4.843 0 7.088 2.008 7.797 3.602.059-.767.176-2.126.296-2.896h7.975c0 2.603-.06 5.614-.06 8.39v33.91h-8.211v-14.947Zm-33.062-27.353h8.505v30.603h-8.505v-30.603Zm0-4.959v-7.562h8.505v7.562h-8.505Zm-21.693 26.345c.649 2.483 2.657 3.841 5.789 3.841 3.132 0 4.253-1.124 4.253-3.015 0-1.947-1.3-2.716-5.672-3.78-9.983-2.48-11.577-5.552-11.577-9.865 0-4.49 3.131-9.273 12.347-9.273 9.273 0 12.463 5.08 12.7 9.213h-8.034c-.296-1.122-1.064-3.248-5.022-3.248-2.776 0-3.721 1.241-3.721 2.599 0 1.537.945 2.246 5.908 3.427 10.22 2.364 11.695 5.848 11.695 10.338 0 5.082-3.898 9.688-13.173 9.688-9.333 0-13.114-4.489-13.823-9.925h8.33Zm-11.118.354c0 2.895 0 6.143.06 8.863h-8.27c-.12-.829-.18-2.481-.237-3.546-1.833 3.072-4.49 4.254-8.45 4.254-6.2 0-10.158-3.781-10.158-11.342v-19.969h8.447v18.255c0 3.368 1.063 6.144 4.726 6.144 3.84 0 5.435-2.068 5.435-8.092v-16.307h8.447v21.74ZM18.06 207.723c0-2.659 0-5.258-.06-7.918h8.093c.117.77.297 2.483.356 3.664 1.535-2.245 4.015-4.37 8.507-4.37 4.37 0 6.793 2.304 7.856 4.666 1.83-2.482 4.431-4.666 9.45-4.666 5.319 0 9.689 3.309 9.689 11.223v20.086h-8.27v-19.022c0-2.778-1.005-5.494-4.49-5.494-3.545 0-4.962 2.363-4.962 7.029v17.487H35.9v-18.727c0-3.13-.768-5.731-4.372-5.731-3.428 0-5.08 2.129-5.08 7.384v17.074h-8.39v-22.685Z"/><path fill="#E8A9CA" d="M202.897 82.005c-15.643 0-28.324-12.032-28.324-26.873 0-1.822.192-3.6.557-5.32h15.998a11.79 11.79 0 0 0-1.265 5.32c0 6.83 5.836 12.366 13.034 12.366 1.604 0 3.14-.277 4.56-.78v14.939a30.022 30.022 0 0 1-4.56.348Zm27.66-21.07h-16.149a11.812 11.812 0 0 0 1.522-5.803c0-6.83-5.835-12.366-13.033-12.366-1.347 0-2.646.193-3.869.553V17.895h14.024V30.04c10.626 3.874 18.168 13.646 18.168 25.093 0 1.992-.23 3.933-.663 5.803Z"/></svg>