<svg xmlns="http://www.w3.org/2000/svg" width="250" height="250" fill="none"><path fill="#00FB8E" d="M0 0h250v250H0z"/><path fill="#262623" d="M222.404 92.155c-1.008.78-.724 2.285-1.348 3.315-.49 1.617-1.223 3.18-1.4 4.877.809 1.079-.552 2.303-.28 3.479-.313.982-.681 1.937-.469 2.837-.187 1.079-.523 2.105-.677 3.216.12 1.584-.022 3.177-.268 4.745-.322 1.206-.308 2.457-.014 3.665.267 1.34.73 2.654 1.466 3.811 1.427.27 1.493-1.852 1.649-2.855.5-2.655 2.161-4.881 3.057-7.399.235-.478.293-1.754.876-1.285.64-1.955.973-3.994 1.492-5.983.239-1.323.808-2.555 1.082-3.863.07-1.335.197-2.78-.439-4.005-.469-1.016-.903-2.064-1.725-2.86-.733-.843-1.756-1.365-2.822-1.629l-.18-.066ZM113.71 80.904c-5.392.327-10.843 1.1-16 2.8-4.02 1.979-8.815 3.254-12.454 6.21-1.806.644-3.86 2.79-6.025 4.18-2.888 2.666-6.516 5.368-8.337 8.721-1.639.193-.749 1.809-2.187 3.521-1.78 2.277-3.32 4.647-3.444 7.543-.753 2.127-1.282 5.213-1.327 7.922-.133 4.375 0 8.837.83 13.149.579 3.585 1.46 7.058 3.276 10.193.709 2.149 4.921 6.676 3.256 7.256 1.826 2.786 4.537 4.767 6.19 7.469.593 2.097 2.863 3.26 4.501 5.04-.27-2.226 2.759 2.865 2.147.798 2.092 2.534 5.737 3.093 8.648 4.428 2.457 1.216 5.312 2.169 7.663 2.872 2.602.44 4.485.749 7.044.94 3.546 1.448 7.26.753 10.753 1.15 6.423-.673 13.242-2.213 17.885-7.015 2.36-2.042 4.758-3.328 7.062-5.527 2.262-3.211 5.429-4.857 7.227-8.14 2.518-3.586 4.697-7.608 5.735-11.884 2.015-6.754 3.328-14.048 1.099-20.926-1.803-3.495-2.762-8.155-6.629-9.758-1.79-.809-4.387-2.494-2.828.757.033 5.823-.561 11.599-1.389 17.353-.727 7.054-2.777 14.055-5.88 20.372 1.708-3.517 1.314.722-.094.757-1.881 1.408-4.059 6.373-6.813 8.503-3.412 3.724-8.484 5.219-12.599 7.694-3.827 1.553-7.861 1.826-11.956 1.659-3.576-.136-6.794-1.248-10.15-2.152-4.67-1.648-9.416-3.611-12.943-7.284-4.118-4.007-8.228-8.369-9.952-13.957-1.256-3.872-2.906-7.605-2.979-11.749-1.09-4.26 1.485-7.917 1.245-12.05-.322-5.22 1.955-10.241 4.13-14.868 1.734-3.426 4.228-6.411 6.653-9.363 2.213-2.487 5.696-4.74 8.877-6.397 10.212-5.537 23.371-5.78 33.46.225 2.886.474 4.959 2.816 7.448 4.324 1.304 1.217 2.376 3.023 4.003 4.054 1.319 1.506 7.433 6.989 3.503 2.934-3.304-3.173.622.33 1.34.385 1.618.347 3.749 4.362 5.413 6.076-.666-2.327-1.889-5.033-3.443-6.875-2.471-3.41-5.314-6.72-8.234-9.913-.182-.847-1.203-3.424-2.903-4.117-1.542-.818-2.462-2.476-4.355-3.494-1.768-.226-3.366-.968-4.521-1.618 1.049 1.378-3.955-1.288-5.03-1.545 2.493 1.672-1.799-.517-2.872-.487-1.342-.199-2.694-.15-4.044-.166Zm29.733 63.451c1.397 1.725-2.847 5.966-.767 1.836.454-.426.157-1.518.767-1.836Zm45.895-46.375 8.501 60.196h7.859l8.677-60.196h-7.506l-4.966 42.652-4.427-42.652h-8.138Zm-27.018 0v49.162c0 7.139 4.97 11.933 11.477 11.933 6.507 0 11.3-4.794 11.3-11.933V97.98h-7.589v49.526c0 2.53-1.272 3.981-3.711 3.981-2.26 0-3.525-1.451-3.525-3.981V97.98h-7.952Zm-113.14-.02 10.69.01v60.173h-7.04v-41.367l-6.075 41.367h-5.671l-6.044-41.305v41.305H28V97.97l10.678-.01 5.247 38.608 5.256-38.609Zm56.272 28.591a4.46 4.46 0 0 0-.479 2.013c0 2.585 2.209 4.68 4.933 4.68.405 0 .798-.046 1.175-.133l.551-.161v5.653a11.4 11.4 0 0 1-1.726.132c-5.92 0-10.72-4.554-10.72-10.171 0-.459.033-.912.095-1.355l.116-.658h6.055Zm8.298-12.08v4.596c4.021 1.466 6.876 5.165 6.876 9.497 0 .503-.039.997-.113 1.48l-.138.716h-6.112a4.464 4.464 0 0 0 .576-2.196c0-2.585-2.208-4.68-4.933-4.68-.34 0-.671.033-.992.095l-.472.115v-9.623h5.308Z"/></svg>