<?xml version="1.0" encoding="UTF-8" standalone="no"?>
<!-- Created with Inkscape (http://www.inkscape.org/) -->

<svg
   xmlns:dc="http://purl.org/dc/elements/1.1/"
   xmlns:cc="http://creativecommons.org/ns#"
   xmlns:rdf="http://www.w3.org/1999/02/22-rdf-syntax-ns#"
   xmlns:svg="http://www.w3.org/2000/svg"
   xmlns="http://www.w3.org/2000/svg"
   xmlns:sodipodi="http://sodipodi.sourceforge.net/DTD/sodipodi-0.dtd"
   xmlns:inkscape="http://www.inkscape.org/namespaces/inkscape"
   width="100.18889mm"
   height="28.45752mm"
   viewBox="0 0 100.18889 28.45752"
   version="1.1"
   id="svg3979"
   inkscape:version="0.92.4 (5da689c313, 2019-01-14)"
   sodipodi:docname="drawing-1.svg">
  <defs
     id="defs3973">
    <clipPath
       clipPathUnits="userSpaceOnUse"
       id="clipPath20">
      <path
         d="M 0,792 H 612 V 0 H 0 Z"
         id="path18"
         inkscape:connector-curvature="0" />
    </clipPath>
  </defs>
  <sodipodi:namedview
     id="base"
     pagecolor="#ffffff"
     bordercolor="#666666"
     borderopacity="1.0"
     inkscape:pageopacity="0.0"
     inkscape:pageshadow="2"
     inkscape:zoom="5.6"
     inkscape:cx="142.70624"
     inkscape:cy="29.464426"
     inkscape:document-units="mm"
     inkscape:current-layer="layer1"
     showgrid="false"
     fit-margin-top="0"
     fit-margin-left="0"
     fit-margin-right="0"
     fit-margin-bottom="0"
     inkscape:window-width="2736"
     inkscape:window-height="1699"
     inkscape:window-x="-13"
     inkscape:window-y="-13"
     inkscape:window-maximized="1" />
  <metadata
     id="metadata3976">
    <rdf:RDF>
      <cc:Work
         rdf:about="">
        <dc:format>image/svg+xml</dc:format>
        <dc:type
           rdf:resource="http://purl.org/dc/dcmitype/StillImage" />
        <dc:title></dc:title>
      </cc:Work>
    </rdf:RDF>
  </metadata>
  <g
     inkscape:label="Layer 1"
     inkscape:groupmode="layer"
     id="layer1"
     transform="translate(405.39206,167.77638)">
    <path
       d="m -305.20317,-139.31886 h -100.18889 v -28.45752 h 100.18889 z"
       style="fill:#000000;fill-opacity:1;fill-rule:nonzero;stroke:none;stroke-width:0.35277775"
       id="path12"
       inkscape:connector-curvature="0" />
    <g
       transform="matrix(0.35277777,0,0,-0.35277777,-429.86673,59.344768)"
       id="g14">
      <g
         id="g16"
         clip-path="url(#clipPath20)">
        <g
           id="g22"
           transform="translate(104.2314,617.7437)">
          <path
             d="m 0,0 h 14.656 c 2.282,0 4.302,-0.684 6.053,-2.05 1.752,-1.369 2.628,-2.706 2.628,-4.007 0,-0.921 -0.324,-1.675 -0.968,-2.263 -0.647,-0.591 -1.362,-0.882 -2.144,-0.882 -1.015,0 -1.939,0.461 -2.773,1.386 -0.835,0.922 -1.708,1.384 -2.619,1.384 H 0.406 c -1.418,0 -2.125,-0.578 -2.125,-1.737 0,-0.812 0.463,-1.427 1.391,-1.847 l 16.982,-7.647 c 1.728,-0.762 3.143,-1.989 4.249,-3.677 1.105,-1.693 1.658,-3.568 1.658,-5.627 0,-2.748 -0.973,-5.073 -2.915,-6.979 -1.945,-1.909 -4.15,-2.861 -6.615,-2.861 H 0.073 c -2.238,0 -4.315,0.674 -6.233,2.03 -1.92,1.356 -2.877,2.674 -2.877,3.949 0,0.844 0.31,1.591 0.93,2.242 0.621,0.652 1.427,0.979 2.414,0.979 0.811,0 1.679,-0.462 2.604,-1.386 0.926,-0.924 2.262,-1.386 4.013,-1.386 h 11.899 c 0.938,0 1.723,0.36 2.357,1.085 0.633,0.722 0.951,1.553 0.951,2.491 0,1.446 -0.69,2.488 -2.067,3.119 l -17.182,7.736 c -1.652,0.739 -2.922,1.805 -3.811,3.206 -0.888,1.398 -1.333,2.821 -1.333,4.273 0,2.289 0.792,4.272 2.38,5.951 C -4.296,-0.84 -2.335,0 0,0"
             style="fill:#ed1f24;fill-opacity:1;fill-rule:nonzero;stroke:none"
             id="path24"
             inkscape:connector-curvature="0" />
        </g>
        <g
           id="g26"
           transform="translate(158.9863,614.1943)">
          <path
             d="m 0,0 c -2.712,2.44 -5.504,3.634 -8.379,3.584 h -7.522 c -3.054,0 -5.885,-1.24 -8.495,-3.718 -2.608,-2.481 -3.913,-5.121 -3.913,-7.916 v -13.542 c 0,-2.797 1.336,-5.434 4.009,-7.915 2.671,-2.479 5.472,-3.719 8.399,-3.719 h 7.522 c 2.875,0 5.667,1.223 8.379,3.663 2.71,2.441 4.065,5.098 4.065,7.971 V -8.05 C 4.065,-5.126 2.71,-2.444 0,0 m -20.588,-5.739 2.169,1.864 c 0.786,0.686 1.9,1.029 3.348,1.029 h 6.62 c 1.014,0 1.899,-0.318 2.663,-0.95 l 2.243,-1.792 c 0.787,-0.609 1.181,-1.549 1.181,-2.817 v -12.943 c 0,-1.091 -0.394,-1.943 -1.181,-2.553 l -1.94,-1.714 c -0.886,-0.787 -1.876,-1.181 -2.966,-1.181 h -7.42 c -0.964,0 -1.713,0.23 -2.244,0.687 l -2.395,2.055 c -0.839,0.686 -1.257,1.615 -1.257,2.78 v 12.945 c 0,1.065 0.392,1.928 1.179,2.59"
             style="fill:#ed1f24;fill-opacity:1;fill-rule:nonzero;stroke:none"
             id="path28"
             inkscape:connector-curvature="0" />
        </g>
        <g
           id="g30"
           transform="translate(168.4004,584.1401)">
          <path
             d="m 0,0 v 30.4 c 0,0.891 0.315,1.646 0.949,2.267 0.632,0.626 1.401,0.937 2.304,0.937 1.679,0 2.737,-0.848 3.178,-2.54 1.77,1.692 3.744,2.54 5.923,2.54 2.556,0 4.655,-1.103 6.301,-3.31 2.024,2.207 4.252,3.31 6.683,3.31 1.973,0 3.688,-0.705 5.144,-2.112 1.455,-1.41 2.234,-3.203 2.335,-5.387 l 0.998,-26.113 c 0,-0.86 -0.323,-1.611 -0.962,-2.246 -0.643,-0.636 -1.399,-0.949 -2.271,-0.949 -0.896,0 -1.667,0.313 -2.308,0.949 -0.641,0.629 -0.976,1.378 -1,2.239 l -0.776,25.026 c -0.053,1.366 -0.473,2.052 -1.263,2.052 -0.435,0 -0.881,-0.191 -1.34,-0.572 L 20.067,23.29 V -0.084 c 0,-0.863 -0.312,-1.598 -0.938,-2.208 -0.625,-0.61 -1.384,-0.911 -2.276,-0.911 -0.869,0 -1.623,0.307 -2.26,0.93 -0.638,0.625 -0.957,1.375 -0.957,2.265 v 25.434 c 0,1.092 -0.466,1.637 -1.397,1.637 -0.453,0 -0.866,-0.167 -1.243,-0.495 L 6.431,22.681 V -0.017 C 6.431,-0.879 6.123,-1.625 5.51,-2.259 4.897,-2.89 4.157,-3.203 3.292,-3.203 2.397,-3.203 1.627,-2.89 0.975,-2.252 0.324,-1.616 0,-0.864 0,0"
             style="fill:#ed1f24;fill-opacity:1;fill-rule:nonzero;stroke:none"
             id="path32"
             inkscape:connector-curvature="0" />
        </g>
        <g
           id="g34"
           transform="translate(209.2646,601.1572)">
          <path
             d="m 0,0 c -1.9,-1.888 -2.853,-4.161 -2.853,-6.828 v -3.727 c 0,-2.691 0.94,-4.974 2.823,-6.852 1.881,-1.877 4.174,-2.813 6.881,-2.813 h 10.835 l 5.417,3.246 c 0,-0.903 0.32,-1.67 0.961,-2.302 0.64,-0.631 1.426,-0.944 2.346,-0.944 0.873,0 1.629,0.307 2.271,0.932 0.64,0.625 0.962,1.381 0.962,2.271 l -0.775,23.99 c -0.077,2.695 -1.054,4.971 -2.932,6.827 -1.877,1.857 -4.143,2.786 -6.797,2.786 H 6.919 c -0.897,0 -1.658,-0.313 -2.288,-0.94 -0.63,-0.625 -0.942,-1.382 -0.942,-2.274 0,-0.869 0.32,-1.623 0.958,-2.259 0.643,-0.638 1.397,-0.958 2.267,-0.958 h 12.199 c 0.89,0 1.651,-0.311 2.276,-0.932 0.623,-0.623 0.938,-1.381 0.938,-2.267 l 0.147,-4.539 c -1.303,0.282 -2.297,0.42 -2.988,0.42 H 6.887 C 4.193,2.837 1.903,1.895 0,0 M 15.905,-13.572 H 6.894 c -0.863,0 -1.617,0.314 -2.253,0.932 -0.636,0.619 -0.952,1.354 -0.952,2.2 v 3.5 c 0,0.868 0.312,1.606 0.933,2.211 0.624,0.611 1.384,0.916 2.272,0.916 h 12.584 c 0.887,0 1.633,-0.299 2.241,-0.896 0.61,-0.596 0.928,-1.342 0.954,-2.236 l 0.19,-2.644 z"
             style="fill:#ed1f24;fill-opacity:1;fill-rule:nonzero;stroke:none"
             id="path36"
             inkscape:connector-curvature="0" />
        </g>
        <g
           id="g38"
           transform="translate(275.2832,611.312)">
          <path
             d="m 0,0 v -27.176 c 0,-0.889 -0.321,-1.644 -0.964,-2.267 -0.641,-0.624 -1.396,-0.932 -2.269,-0.932 -0.924,0 -1.705,0.308 -2.347,0.932 -0.64,0.623 -0.962,1.378 -0.962,2.267 V 0 h -3.254 c -0.882,0 -1.632,0.32 -2.248,0.958 -0.621,0.636 -0.928,1.391 -0.928,2.259 0,0.841 0.278,1.586 0.841,2.238 0.562,0.651 1.326,0.977 2.301,0.977 h 3.288 v 2.475 c 0,3.275 1.132,5.989 3.395,8.147 2.259,2.158 5.075,3.237 8.453,3.237 h 7.55 c 0.894,0 1.653,-0.322 2.28,-0.963 0.627,-0.641 0.941,-1.425 0.941,-2.346 0,-0.874 -0.322,-1.63 -0.958,-2.272 -0.64,-0.641 -1.391,-0.961 -2.259,-0.961 H 5.32 C 3.788,13.749 2.521,13.295 1.511,12.393 0.505,11.485 0,10.316 0,8.883 V 6.432 H 6.431 C 7.297,6.456 8.052,6.148 8.687,5.512 9.325,4.874 9.646,4.109 9.646,3.217 9.646,2.349 9.328,1.594 8.697,0.958 8.062,0.32 7.313,0 6.456,0 Z"
             style="fill:#ed1f24;fill-opacity:1;fill-rule:nonzero;stroke:none"
             id="path40"
             inkscape:connector-curvature="0" />
        </g>
        <g
           id="g42"
           transform="translate(289.2402,584.1401)">
          <path
             d="m 0,0 v 30.4 c 0,0.891 0.314,1.646 0.95,2.267 0.631,0.626 1.399,0.937 2.305,0.937 1.678,0 2.737,-0.848 3.176,-2.54 1.768,1.692 3.744,2.54 5.922,2.54 2.559,0 4.657,-1.103 6.302,-3.31 2.024,2.207 4.253,3.31 6.683,3.31 1.975,0 3.688,-0.705 5.146,-2.112 1.453,-1.41 2.228,-3.203 2.335,-5.387 l 0.995,-26.113 c 0,-0.86 -0.322,-1.611 -0.961,-2.246 -0.643,-0.636 -1.399,-0.949 -2.272,-0.949 -0.893,0 -1.665,0.313 -2.309,0.949 -0.64,0.629 -0.974,1.378 -0.998,2.239 l -0.777,25.026 c -0.051,1.366 -0.471,2.052 -1.263,2.052 -0.432,0 -0.881,-0.191 -1.339,-0.572 L 20.066,23.29 V -0.084 c 0,-0.863 -0.311,-1.598 -0.938,-2.208 -0.625,-0.61 -1.383,-0.911 -2.275,-0.911 -0.87,0 -1.621,0.307 -2.259,0.93 -0.64,0.625 -0.955,1.375 -0.955,2.265 v 25.434 c 0,1.092 -0.469,1.637 -1.399,1.637 -0.454,0 -0.866,-0.167 -1.244,-0.495 L 6.431,22.681 V -0.017 C 6.431,-0.879 6.124,-1.625 5.51,-2.259 4.899,-2.89 4.157,-3.203 3.291,-3.203 2.398,-3.203 1.628,-2.89 0.976,-2.252 0.322,-1.616 0,-0.864 0,0"
             style="fill:#ed1f24;fill-opacity:1;fill-rule:nonzero;stroke:none"
             id="path44"
             inkscape:connector-curvature="0" />
        </g>
      </g>
    </g>
  </g>
</svg>
