<svg width="1024px" height="1024px" viewBox="0 0 100 100" version="1.1" xmlns="http://www.w3.org/2000/svg" xmlns:xlink="http://www.w3.org/1999/xlink">
    <g id="Page-1" stroke="none" stroke-width="1" fill="none" fill-rule="evenodd">
        <g id="neos-app-icon">
            <rect id="Rectangle" fill="#000000" x="0" y="0" width="100" height="100"></rect>
            <g id="Group" transform="translate(14, 39)" fill="#FFFFFF">
                <g id="NE" transform="translate(0, 2.055)" fill-rule="nonzero">
                    <polygon id="Path" points="-2.84217094e-14 16.8 -2.84217094e-14 0 2.568 0 13.104 12.936 11.832 12.936 11.832 0 14.928 0 14.928 16.8 12.36 16.8 1.824 3.864 3.096 3.864 3.096 16.8"></polygon>
                    <path d="M19.44,16.8 L19.44,0 L31.704,0 L31.704,2.616 L22.56,2.616 L22.56,14.184 L32.04,14.184 L32.04,16.8 L19.44,16.8 Z M22.32,9.552 L22.32,6.984 L30.672,6.984 L30.672,9.552 L22.32,9.552 Z" id="Shape"></path>
                </g>
                <g id="S" transform="translate(59.584, 1.815)" fill-rule="nonzero">
                    <path d="M6.624,17.28 C5.312,17.28 4.056,17.092 2.856,16.716 C1.656,16.34 0.704,15.856 -5.68434189e-14,15.264 L1.08,12.84 C1.752,13.368 2.584,13.808 3.576,14.16 C4.568,14.512 5.584,14.688 6.624,14.688 C7.504,14.688 8.216,14.592 8.76,14.4 C9.304,14.208 9.704,13.948 9.96,13.62 C10.216,13.292 10.344,12.92 10.344,12.504 C10.344,11.992 10.16,11.58 9.792,11.268 C9.424,10.956 8.948,10.708 8.364,10.524 C7.78,10.34 7.132,10.168 6.42,10.008 C5.708,9.848 4.996,9.66 4.284,9.444 C3.572,9.228 2.924,8.948 2.34,8.604 C1.756,8.26 1.28,7.8 0.912,7.224 C0.544,6.648 0.36,5.912 0.36,5.016 C0.36,4.104 0.604,3.268 1.092,2.508 C1.58,1.748 2.324,1.14 3.324,0.684 C4.324,0.228 5.592,-2.84217094e-14 7.128,-2.84217094e-14 C8.136,-2.84217094e-14 9.136,0.128 10.128,0.384 C11.12,0.64 11.984,1.008 12.72,1.488 L11.736,3.912 C10.984,3.464 10.208,3.132 9.408,2.916 C8.608,2.7 7.84,2.592 7.104,2.592 C6.24,2.592 5.54,2.696 5.004,2.904 C4.468,3.112 4.076,3.384 3.828,3.72 C3.58,4.056 3.456,4.44 3.456,4.872 C3.456,5.384 3.636,5.796 3.996,6.108 C4.356,6.42 4.828,6.664 5.412,6.84 C5.996,7.016 6.648,7.188 7.368,7.356 C8.088,7.524 8.804,7.712 9.516,7.92 C10.228,8.128 10.876,8.4 11.46,8.736 C12.044,9.072 12.516,9.528 12.876,10.104 C13.236,10.68 13.416,11.408 13.416,12.288 C13.416,13.184 13.172,14.012 12.684,14.772 C12.196,15.532 11.448,16.14 10.44,16.596 C9.432,17.052 8.16,17.28 6.624,17.28 Z" id="Path"></path>
                </g>
                <g id="O" transform="translate(34.449, 0)" fill-rule="nonzero">
                    <path d="M11.284,22.01 C9.672,22.01 8.17883333,21.7361667 6.8045,21.1885 C5.43016667,20.6408333 4.2315,19.8658333 3.2085,18.8635 C2.1855,17.8611667 1.395,16.6935 0.837,15.3605 C0.279,14.0275 -2.84217094e-14,12.5756667 -2.84217094e-14,11.005 C-2.84217094e-14,9.43433333 0.279,7.9825 0.837,6.6495 C1.395,5.3165 2.1855,4.14883333 3.2085,3.1465 C4.2315,2.14416667 5.43016667,1.36916667 6.8045,0.8215 C8.17883333,0.273833333 9.672,0 11.284,0 C12.896,0 14.3891667,0.273833333 15.7635,0.8215 C17.1378333,1.36916667 18.3313333,2.139 19.344,3.131 C20.3566667,4.123 21.1471667,5.2855 21.7155,6.6185 C22.2838333,7.9515 22.568,9.41366667 22.568,11.005 C22.568,12.5963333 22.2838333,14.0585 21.7155,15.3915 C21.1471667,16.7245 20.3566667,17.887 19.344,18.879 C18.3313333,19.871 17.1378333,20.6408333 15.7635,21.1885 C14.3891667,21.7361667 12.896,22.01 11.284,22.01 Z M11.284,20.553 C12.6686667,20.553 13.95,20.3153333 15.128,19.84 C16.306,19.3646667 17.329,18.693 18.197,17.825 C19.065,16.957 19.7418333,15.9443333 20.2275,14.787 C20.7131667,13.6296667 20.956,12.369 20.956,11.005 C20.956,9.62033333 20.7131667,8.3545 20.2275,7.2075 C19.7418333,6.0605 19.065,5.053 18.197,4.185 C17.329,3.317 16.306,2.64533333 15.128,2.17 C13.95,1.69466667 12.6686667,1.457 11.284,1.457 C9.89933333,1.457 8.618,1.69466667 7.44,2.17 C6.262,2.64533333 5.23383333,3.317 4.3555,4.185 C3.47716667,5.053 2.79516667,6.0605 2.3095,7.2075 C1.82383333,8.3545 1.581,9.62033333 1.581,11.005 C1.581,12.369 1.82383333,13.6296667 2.3095,14.787 C2.79516667,15.9443333 3.47716667,16.957 4.3555,17.825 C5.23383333,18.693 6.262,19.3646667 7.44,19.84 C8.618,20.3153333 9.89933333,20.553 11.284,20.553 Z" id="Shape"></path>
                </g>
                <circle id="Oval" cx="45.744" cy="10.855" r="1"></circle>
            </g>
        </g>
    </g>
</svg>
